<?xml version="1.0" encoding="UTF-8"?>
<svg width="204px" height="48px" viewBox="0 0 204 48" version="1.1" xmlns="http://www.w3.org/2000/svg" xmlns:xlink="http://www.w3.org/1999/xlink">
    <!-- Generator: Sketch 48.2 (47327) - http://www.bohemiancoding.com/sketch -->
    <title>Group 3 Copy 6</title>
    <desc>Created with Sketch.</desc>
    <defs></defs>
    <g id="Page-1" stroke="none" stroke-width="1" fill="none" fill-rule="evenodd">
        <g id="Group-3-Copy-6" transform="translate(0.000000, -8.000000)">
            <g id="Group-Copy-2" transform="translate(26.000000, 0.000000)" fill="#202548">
                <path d="M50.0117188,15.1914062 L46.53125,15.1914062 L46.53125,11.9570312 C44.9843673,11.6992175 43.5078195,11.5703125 42.1015625,11.5703125 C39.3593613,11.5703125 37.9882812,12.765613 37.9882812,15.15625 C37.9882812,16.3750061 38.4042927,17.2832001 39.2363281,17.8808594 C40.0683635,18.4785186 41.3515538,18.929686 43.0859375,19.234375 C48.5234647,20.1953173 51.2421875,22.9023215 51.2421875,27.3554688 C51.2421875,31.9023665 48.0312821,34.1757812 41.609375,34.1757812 C38.7968609,34.1757812 36.2070431,33.8242223 33.8398438,33.1210938 L33.8398438,27.2148438 L37.3203125,27.2148438 L37.3203125,30.4492188 C38.8437576,30.7304702 40.2499936,30.8710938 41.5390625,30.8710938 C45.429707,30.8710938 47.375,29.6757932 47.375,27.2851562 C47.375,25.8788992 46.9589885,24.8418002 46.1269531,24.1738281 C45.2949177,23.505856 43.9414156,23.04297 42.0664062,22.7851562 C39.8398326,22.4804672 37.9589921,21.7128968 36.4238281,20.4824219 C34.8886642,19.251947 34.1210938,17.4882927 34.1210938,15.1914062 C34.1210938,12.9648326 34.9003828,11.2656309 36.4589844,10.09375 C38.0175859,8.92186914 39.9218637,8.3359375 42.171875,8.3359375 C45.4531414,8.3359375 48.0663965,8.65234059 50.0117188,9.28515625 L50.0117188,15.1914062 Z M77.2578125,34 L69.8046875,34 L69.8046875,30.765625 L71.3164063,30.765625 L69.6289063,25.7734375 L60.5234375,25.7734375 L58.8007813,30.765625 L60.453125,30.765625 L60.453125,34 L53,34 L53,30.765625 L54.828125,30.765625 L63.3359375,8.30078125 L67.1328125,8.30078125 L75.7109375,30.765625 L77.2578125,30.765625 L77.2578125,34 Z M68.5390625,22.5390625 L65.1289062,12.4492188 L61.6484375,22.5390625 L68.5390625,22.5390625 Z M101.691406,8.51171875 L110.65625,8.51171875 L110.65625,11.7460938 L108.125,11.7460938 L108.125,30.765625 L110.65625,30.765625 L110.65625,34 L101.726562,34 L101.726562,30.765625 L104.222656,30.765625 L104.222656,12.3789062 L96.7695313,34 L93.3242188,34 L85.4140625,12.34375 L85.4140625,30.765625 L87.9453125,30.765625 L87.9453125,34 L79.015625,34 L79.015625,30.765625 L81.5820312,30.765625 L81.5820312,11.7460938 L79.015625,11.7460938 L79.015625,8.51171875 L87.875,8.51171875 L95.046875,28.1640625 L101.691406,8.51171875 Z M123.101563,34 L114.171875,34 L114.171875,30.765625 L116.703125,30.765625 L116.703125,11.7460938 L114.171875,11.7460938 L114.171875,8.51171875 L124.71875,8.51171875 C127.835953,8.51171875 130.103509,9.12108766 131.521484,10.3398438 C132.93946,11.5585998 133.648438,13.3632693 133.648438,15.7539062 C133.648438,18.0273551 132.916023,19.7910094 131.451172,21.0449219 C129.986321,22.2988344 127.84767,22.9257812 125.035156,22.9257812 L120.570313,22.9257812 L120.570313,30.765625 L123.101563,30.765625 L123.101563,34 Z M120.570312,19.6914062 L125.035156,19.6914062 C126.558601,19.6914062 127.730465,19.4101591 128.550781,18.8476562 C129.371098,18.2851534 129.78125,17.2539138 129.78125,15.7539062 C129.78125,14.2538987 129.341801,13.2109404 128.462891,12.625 C127.58398,12.0390596 126.335946,11.7460938 124.71875,11.7460938 L120.570312,11.7460938 L120.570312,19.6914062 Z M155.796875,34 L136.460938,34 L136.460938,30.765625 L138.992188,30.765625 L138.992188,11.7460938 L136.460938,11.7460938 L136.460938,8.51171875 L145.390625,8.51171875 L145.390625,11.7460938 L142.859375,11.7460938 L142.859375,30.765625 L152.5625,30.765625 L152.5625,28.0234375 L155.796875,28.0234375 L155.796875,34 Z M160.4375,11.7460938 L157.90625,11.7460938 L157.90625,8.51171875 L177.242188,8.51171875 L177.242188,14.4882812 L174.007812,14.4882812 L174.007812,11.7460938 L164.304688,11.7460938 L164.304688,19.234375 L174.570312,19.234375 L174.570312,22.46875 L164.304688,22.46875 L164.304688,30.765625 L174.007812,30.765625 L174.007812,28.0234375 L177.242188,28.0234375 L177.242188,34 L157.90625,34 L157.90625,30.765625 L160.4375,30.765625 L160.4375,11.7460938 Z" id="Sample"></path>
                <path d="M99.453125,48.5488281 L98.5742188,48.5488281 L98.5742188,47.0371094 C97.8710902,46.8496084 97.1328164,46.7558594 96.359375,46.7558594 C95.8203098,46.7558594 95.3457052,46.8906237 94.9355469,47.1601562 C94.5253886,47.4296888 94.3203125,47.7812478 94.3203125,48.2148438 C94.3203125,48.6367209 94.5341775,48.9619129 94.9619141,49.1904297 C95.3896506,49.4189465 96.0195271,49.6035149 96.8515625,49.7441406 C98.9961045,50.0957049 100.068359,50.986321 100.068359,52.4160156 C100.068359,52.9550808 99.9628917,53.4091778 99.7519531,53.7783203 C99.5410146,54.1474628 99.2392598,54.4228507 98.8466797,54.6044922 C98.4540996,54.7861337 98.0439475,54.912109 97.6162109,54.9824219 C97.1884744,55.0527347 96.6875029,55.0878906 96.1132812,55.0878906 C95.0117132,55.0878906 94.0097701,54.9121111 93.1074219,54.5605469 L93.1074219,52.3457031 L93.9863281,52.3457031 L93.9863281,53.875 C94.6191438,54.0976574 95.3164024,54.2089844 96.078125,54.2089844 C98.0234472,54.2089844 98.9960938,53.5996155 98.9960938,52.3808594 C98.9960938,51.9589823 98.7500025,51.5986343 98.2578125,51.2998047 C97.7656225,51.0009751 97.1269571,50.7929693 96.3417969,50.6757812 C95.3105417,50.5117179 94.537112,50.245119 94.0214844,49.8759766 C93.5058568,49.5068341 93.2480469,48.958988 93.2480469,48.2324219 C93.2480469,47.5292934 93.5527313,46.966799 94.1621094,46.5449219 C94.7714874,46.1230448 95.5156206,45.9121094 96.3945312,45.9121094 C97.4375052,45.9121094 98.4570263,46.052733 99.453125,46.3339844 L99.453125,48.5488281 Z M105.320312,53.7519531 C104.441402,52.8613237 104.001953,51.7773501 104.001953,50.5 C104.001953,49.2226499 104.441402,48.1386763 105.320312,47.2480469 C106.199223,46.3574174 107.259759,45.9121094 108.501953,45.9121094 C109.744147,45.9121094 110.804683,46.3574174 111.683594,47.2480469 C112.562504,48.1386763 113.001953,49.2226499 113.001953,50.5 C113.001953,51.7773501 112.562504,52.8613237 111.683594,53.7519531 C110.804683,54.6425826 109.744147,55.0878906 108.501953,55.0878906 C107.259759,55.0878906 106.199223,54.6425826 105.320312,53.7519531 Z M106.076172,47.8808594 C105.4082,48.5957067 105.074219,49.4687448 105.074219,50.5 C105.074219,51.5312552 105.4082,52.4042933 106.076172,53.1191406 C106.744144,53.8339879 107.55273,54.1914062 108.501953,54.1914062 C109.451177,54.1914062 110.259762,53.8339879 110.927734,53.1191406 C111.595706,52.4042933 111.929688,51.5312552 111.929688,50.5 C111.929688,49.4687448 111.595706,48.5957067 110.927734,47.8808594 C110.259762,47.1660121 109.451177,46.8085938 108.501953,46.8085938 C107.55273,46.8085938 106.744144,47.1660121 106.076172,47.8808594 Z M120.697266,55 L116.759766,55 L116.759766,54.1210938 L118.201172,54.1210938 L118.201172,42.2734375 L116.935547,42.2734375 L116.935547,41.3945312 L119.273438,41.3945312 L119.273438,54.1210938 L120.697266,54.1210938 L120.697266,55 Z M133.208984,46 L133.208984,54.1210938 L134.474609,54.1210938 L134.474609,55 L132.136719,55 L132.136719,53.171875 C131.14062,54.4492251 130.044928,55.0878906 128.849609,55.0878906 C128.287107,55.0878906 127.806643,55.0146492 127.408203,54.8681641 C127.009764,54.721679 126.70215,54.5371105 126.485352,54.3144531 C126.268554,54.0917958 126.101563,53.790041 125.984375,53.4091797 C125.867187,53.0283184 125.793945,52.6709001 125.764648,52.3369141 C125.735351,52.002928 125.720703,51.5839869 125.720703,51.0800781 L125.720703,46.8789062 L124.455078,46.8789062 L124.455078,46 L126.792969,46 L126.792969,50.6230469 C126.792969,51.9472722 126.918944,52.8671849 127.170898,53.3828125 C127.422853,53.8984401 127.982418,54.15625 128.849609,54.15625 C129.400393,54.15625 129.992184,53.9541036 130.625,53.5498047 C131.257816,53.1455058 131.761717,52.6445342 132.136719,52.046875 L132.136719,46.8789062 L130.871094,46.8789062 L130.871094,46 L133.208984,46 Z M142.556641,54.1210938 L142.626953,54.9824219 L142.257812,55.0351562 C141.847654,55.0937503 141.531251,55.1230469 141.308594,55.1230469 C140.675778,55.1230469 140.236329,54.9150411 139.990234,54.4990234 C139.744139,54.0830057 139.621094,53.3066463 139.621094,52.1699219 L139.621094,46.8789062 L138.232422,46.8789062 L138.232422,46 L139.621094,46 L139.621094,43.7324219 L140.693359,43.7324219 L140.693359,46 L142.46875,46 L142.46875,46.8789062 L140.693359,46.8789062 L140.693359,52.0644531 C140.693359,52.9082073 140.760742,53.4736314 140.895508,53.7607422 C141.030274,54.047853 141.308592,54.1914062 141.730469,54.1914062 C141.824219,54.1914062 141.999999,54.1796876 142.257812,54.15625 L142.556641,54.1210938 Z M150.673828,55 L146.736328,55 L146.736328,54.1210938 L148.177734,54.1210938 L148.177734,46.8789062 L146.912109,46.8789062 L146.912109,46 L149.25,46 L149.25,54.1210938 L150.673828,54.1210938 L150.673828,55 Z M147.896484,43.3105469 C147.732421,43.1347647 147.650391,42.9238294 147.650391,42.6777344 C147.650391,42.4316394 147.735351,42.2236337 147.905273,42.0537109 C148.075196,41.8837882 148.283202,41.7988281 148.529297,41.7988281 C148.775392,41.7988281 148.983398,41.8837882 149.15332,42.0537109 C149.323243,42.2236337 149.408203,42.4316394 149.408203,42.6777344 C149.408203,42.9238294 149.323243,43.1318351 149.15332,43.3017578 C148.983398,43.4716805 148.775392,43.5566406 148.529297,43.5566406 C148.283202,43.5566406 148.072267,43.4746102 147.896484,43.3105469 Z M155.75,53.7519531 C154.871089,52.8613237 154.431641,51.7773501 154.431641,50.5 C154.431641,49.2226499 154.871089,48.1386763 155.75,47.2480469 C156.628911,46.3574174 157.689447,45.9121094 158.931641,45.9121094 C160.173834,45.9121094 161.234371,46.3574174 162.113281,47.2480469 C162.992192,48.1386763 163.431641,49.2226499 163.431641,50.5 C163.431641,51.7773501 162.992192,52.8613237 162.113281,53.7519531 C161.234371,54.6425826 160.173834,55.0878906 158.931641,55.0878906 C157.689447,55.0878906 156.628911,54.6425826 155.75,53.7519531 Z M156.505859,47.8808594 C155.837887,48.5957067 155.503906,49.4687448 155.503906,50.5 C155.503906,51.5312552 155.837887,52.4042933 156.505859,53.1191406 C157.173831,53.8339879 157.982417,54.1914062 158.931641,54.1914062 C159.880864,54.1914062 160.68945,53.8339879 161.357422,53.1191406 C162.025394,52.4042933 162.359375,51.5312552 162.359375,50.5 C162.359375,49.4687448 162.025394,48.5957067 161.357422,47.8808594 C160.68945,47.1660121 159.880864,46.8085938 158.931641,46.8085938 C157.982417,46.8085938 157.173831,47.1660121 156.505859,47.8808594 Z M169.527344,48.953125 L169.527344,54.1210938 L170.792969,54.1210938 L170.792969,55 L167.189453,55 L167.189453,54.1210938 L168.455078,54.1210938 L168.455078,46.8789062 L167.189453,46.8789062 L167.189453,46 L169.527344,46 L169.527344,47.828125 C170.523442,46.5507749 171.619135,45.9121094 172.814453,45.9121094 C173.376956,45.9121094 173.85742,45.9853508 174.255859,46.1318359 C174.654299,46.278321 174.961913,46.4628895 175.178711,46.6855469 C175.395509,46.9082042 175.562499,47.209959 175.679688,47.5908203 C175.796876,47.9716816 175.870117,48.3290999 175.899414,48.6630859 C175.928711,48.997072 175.943359,49.4160131 175.943359,49.9199219 L175.943359,54.1210938 L177.121094,54.1210938 L177.121094,55 L173.605469,55 L173.605469,54.1210938 L174.871094,54.1210938 L174.871094,50.3769531 C174.871094,49.0527278 174.745118,48.1328151 174.493164,47.6171875 C174.24121,47.1015599 173.681645,46.84375 172.814453,46.84375 C172.263669,46.84375 171.671878,47.0458964 171.039062,47.4501953 C170.406247,47.8544942 169.902346,48.3554658 169.527344,48.953125 Z" id="solution"></path>
            </g>
            <g id="Group-4-Copy" transform="translate(0.000000, 8.000000)">
                <path d="M39.6048639,8.62652103 L30.6902276,9.36998097 C29.5989779,5.5893585 26.7262654,2.70700497 23.219446,1.97951028 C21.9030655,0.972444515 20.3746102,0.302980776 18.698479,0.0823375821 L18.698479,0 L17.5516523,0 L17.5516523,0.0663723429 C11.9057366,0.668746201 7.46504743,5.46163659 7.31216662,11.3202515 L0,11.9298008 L4.52484859,40.6944082 L30.6619098,45 L36.8893548,41.8451611 L43,12.8502237 L39.6048639,8.62652103 Z M29.4309237,9.47501071 L27.6207902,9.62596295 C27.3026781,7.55738816 26.5020167,5.67510439 25.3557194,4.13463819 C27.2337803,5.25292248 28.702777,7.16067887 29.4309237,9.47501071 Z M22.7247226,3.15941321 C24.6015485,4.69019264 25.9496873,7.02703726 26.3863636,9.72892977 L13.2580216,10.8238044 C14.1132896,6.58996642 17.6819495,3.35045793 22.0283342,3.07519209 C22.2632572,3.09205425 22.4953573,3.12075581 22.7247226,3.15941321 Z M18.1008941,1.27838514 C19.0441149,1.34592348 19.9483436,1.58190407 20.7914376,1.95995735 C16.3000234,2.74611084 12.7483013,6.36143029 11.9815154,10.9301795 L8.54456416,11.2168363 C8.7516987,5.90462713 12.9059459,1.60639008 18.1008941,1.27838514 Z M31.0504193,43.340512 L30.5514615,43.2111757 L38.9831956,9.55546476 L39.4820652,9.68462175 L31.0504193,43.340512 Z" id="Shape" fill="#202548" fill-rule="nonzero" transform="translate(21.500000, 22.500000) scale(-1, 1) translate(-21.500000, -22.500000) "></path>
                <path d="M30.2240845,21.8620977 L27.903772,21.8620977 L27.903772,19.7058477 C26.8725169,19.5339719 25.8881517,19.4480352 24.950647,19.4480352 C23.1225129,19.4480352 22.2084595,20.2449023 22.2084595,21.8386602 C22.2084595,22.6511643 22.4858005,23.256627 23.0404908,23.6550665 C23.5951811,24.053506 24.4506413,24.3542842 25.606897,24.5574102 C29.2319152,25.1980384 31.044397,27.0027079 31.044397,29.9714727 C31.044397,33.0027379 28.9037934,34.5183477 24.622522,34.5183477 C22.7475127,34.5183477 21.0209674,34.2839751 19.4428345,33.8152227 L19.4428345,29.8777227 L21.763147,29.8777227 L21.763147,32.0339727 C22.7787771,32.2214737 23.7162677,32.3152227 24.575647,32.3152227 C27.16941,32.3152227 28.466272,31.5183557 28.466272,29.9245977 C28.466272,28.987093 28.1889311,28.2956937 27.6342408,27.850379 C27.0795505,27.4050643 26.1772158,27.0964736 24.9272095,26.9245977 C23.4428271,26.7214717 22.1889334,26.2097581 21.1654908,25.3894415 C20.1420482,24.5691249 19.6303345,23.3933554 19.6303345,21.8620977 C19.6303345,20.3777153 20.1498606,19.2449141 21.1889283,18.4636602 C22.227996,17.6824063 23.4975145,17.2917852 24.997522,17.2917852 C27.185033,17.2917852 28.9272031,17.5027206 30.2240845,17.9245977 L30.2240845,21.8620977 Z" id="S" stroke="#FFFFFF" stroke-width="0.4" fill="#FFFFFF" transform="translate(25.243616, 25.905066) rotate(-1.000000) translate(-25.243616, -25.905066) "></path>
            </g>
        </g>
    </g>
</svg>