<?xml version="1.0" encoding="UTF-8"?>
<svg width="45px" height="23px" viewBox="0 0 45 23" version="1.1" xmlns="http://www.w3.org/2000/svg" xmlns:xlink="http://www.w3.org/1999/xlink" style="background: #FFFFFF;">
    <!-- Generator: Sketch 48.2 (47327) - http://www.bohemiancoding.com/sketch -->
    <title>Artboard 2</title>
    <desc>Created with Sketch.</desc>
    <defs></defs>
    <g id="Page-1" stroke="none" stroke-width="1" fill="none" fill-rule="evenodd" opacity="0.117470562">
        <g id="Artboard-2">
            <g id="Group-4-Copy" transform="translate(14.000000, 1.000000)">
                <path d="M15.6577369,3.64230888 L12.1333458,3.95621419 C11.7019215,2.35995137 10.566198,1.14295766 9.17978097,0.835793229 C8.65935146,0.410587684 8.05507845,0.127925217 7.39242192,0.0347647569 L7.39242192,0 L6.93902534,0 L6.93902534,0.0280238781 C4.70691912,0.282359507 2.95129782,2.30602434 2.89085657,4.77966176 L0,5.037027 L1.78889363,17.1820835 L12.1221504,19 L14.5841635,17.6679569 L17,5.42565002 L15.6577369,3.64230888 Z M11.6354815,4.00056008 L10.9198473,4.06429547 C10.794082,3.19089722 10.4775415,2.39615519 10.0243542,1.74573613 C10.7668434,2.2179006 11.3476095,3.02339775 11.6354815,4.00056008 Z M8.98419267,1.33397447 C9.7261936,1.98030356 10.2591787,2.96697129 10.4318182,4.10777035 L5.24154344,4.57005073 C5.57967265,2.78243026 6.99053817,1.41463779 8.70887632,1.29841444 C8.80175286,1.30553402 8.89351335,1.31765245 8.98419267,1.33397447 Z M7.15616742,0.539762614 C7.52906867,0.568278804 7.88655443,0.667915051 8.21987067,0.827537546 C6.44419529,1.15946902 5.0400261,2.68593724 4.73687817,4.61496467 L3.37808351,4.73599753 C3.4599739,2.49306479 5.10235069,0.67825359 7.15616742,0.539762614 Z M12.2757472,18.2993273 L12.0784848,18.2447186 L15.4119611,4.03452956 L15.6091886,4.08906252 L12.2757472,18.2993273 Z" id="Shape" fill="#202548" fill-rule="nonzero" transform="translate(8.500000, 9.500000) scale(-1, 1) translate(-8.500000, -9.500000) "></path>
                <path d="M11.9490567,9.23066349 L11.0317238,9.23066349 L11.0317238,8.32024682 C10.6240183,8.24767701 10.2348507,8.21139265 9.8642093,8.21139265 C9.14145859,8.21139265 8.78008866,8.54784762 8.78008866,9.22076765 C8.78008866,9.56382492 8.88973509,9.81946473 9.10903124,9.98769474 C9.3283274,10.1559247 9.66653259,10.28292 10.123657,10.3686843 C11.5568037,10.6391718 12.2733663,11.4011433 12.2733663,12.6546218 C12.2733663,13.9344893 11.4270811,14.5744135 9.73448546,14.5744135 C8.99320268,14.5744135 8.31061503,14.4754561 7.68670203,14.2775385 L7.68670203,12.6150385 L8.60403488,12.6150385 L8.60403488,13.5254552 C9.00556305,13.6046222 9.37619888,13.6442052 9.71595348,13.6442052 C10.7413947,13.6442052 11.2541076,13.3077502 11.2541076,12.6348302 C11.2541076,12.2389948 11.1444611,11.9470707 10.925165,11.7590489 C10.7058688,11.5710271 10.3491318,11.4407333 9.85494331,11.3681635 C9.26809444,11.2823992 8.77236902,11.0663423 8.36775217,10.7199864 C7.96313532,10.3736305 7.76082994,9.8771945 7.76082994,9.23066349 C7.76082994,8.60392424 7.96622396,8.12563041 8.37701816,7.79576765 C8.78781237,7.46590489 9.28971505,7.30097599 9.88274127,7.30097599 C10.7475712,7.30097599 11.4363361,7.3900376 11.9490567,7.56816349 L11.9490567,9.23066349 Z" id="S" stroke="#FFFFFF" stroke-width="0.78" fill="#FFFFFF" transform="translate(9.980034, 10.937695) rotate(-1.000000) translate(-9.980034, -10.937695) "></path>
            </g>
        </g>
    </g>
</svg>