<?xml version="1.0" encoding="UTF-8"?>
<svg width="438px" height="341px" viewBox="0 0 438 341" version="1.1" xmlns="http://www.w3.org/2000/svg" xmlns:xlink="http://www.w3.org/1999/xlink" style="background: #FFFFFF;">
    <!-- Generator: Sketch 48.2 (47327) - http://www.bohemiancoding.com/sketch -->
    <title>Artboard</title>
    <desc>Created with Sketch.</desc>
    <defs></defs>
    <g id="Page-1" stroke="none" stroke-width="1" fill="none" fill-rule="evenodd" opacity="0.117470562">
        <g id="Artboard">
            <g id="Group-4-Copy" transform="translate(175.000000, 33.000000)">
                <path d="M226.576663,49.2670201 L175.576651,53.5130024 C169.333688,31.9214474 152.8991,15.4600062 132.836831,11.3052032 C125.305909,5.55373868 116.561723,1.73035688 106.972694,0.47023908 L106.972694,0 L100.411778,0 L100.411778,0.379059825 C68.1118884,3.81928386 42.7070155,31.1920134 41.8323951,64.6512143 L0,68.1324178 L25.8863431,232.410287 L175.414647,257 L211.041425,238.982364 L246,73.3890555 L226.576663,49.2670201 Z M168.372261,54.112839 L158.016614,54.9749439 C156.196717,43.1610835 151.616189,32.4111517 145.058301,23.6133781 C155.802557,30.0000239 164.206585,40.8954327 168.372261,54.112839 Z M130.006553,18.0437599 C140.743743,26.7862113 148.456351,40.1321906 150.954545,55.5629989 L75.8482168,61.8159493 C80.7411454,37.6360304 101.157199,19.1348375 126.022563,17.5627637 C127.366541,17.6590654 128.69437,17.8229832 130.006553,18.0437599 Z M103.553952,7.30099957 C108.950053,7.68671856 114.123082,9.03442991 118.946364,11.1935342 C93.2512966,15.6833441 72.9321423,36.3308352 68.5454135,62.4234695 L48.8828555,64.0605981 C50.0678577,33.7219816 73.8340158,9.17427225 103.553952,7.30099957 Z M177.637283,247.52248 L174.78278,246.783825 L223.020142,54.5723209 L225.87414,55.3099509 L177.637283,247.52248 Z" id="Shape" fill="#202548" fill-rule="nonzero" transform="translate(123.000000, 128.500000) scale(-1, 1) translate(-123.000000, -128.500000) "></path>
                <path d="M172.909879,124.856869 L159.635533,124.856869 L159.635533,112.542286 C153.735794,111.560684 148.10431,111.06989 142.740911,111.06989 C132.282283,111.06989 127.053048,115.620886 127.053048,124.723015 C127.053048,129.363316 128.639696,132.821181 131.81304,135.096713 C134.986385,137.372245 139.880413,139.090023 146.495271,140.250098 C167.233747,143.908797 177.60283,154.215465 177.60283,171.170411 C177.60283,188.482303 165.356586,197.138119 140.863731,197.138119 C130.136933,197.138119 120.259488,195.799591 111.2311,193.122494 L111.2311,170.634994 L124.505446,170.634994 L124.505446,182.949578 C130.315795,184.020416 135.679113,184.555828 140.595562,184.555828 C155.434299,184.555828 162.853556,180.004831 162.853556,170.902703 C162.853556,165.548509 161.266908,161.599851 158.093564,159.056609 C154.920219,156.513367 149.758025,154.750971 142.606827,153.769369 C134.114778,152.609294 126.94134,149.686841 121.086296,145.001921 C115.231252,140.317002 112.303774,133.602052 112.303774,124.856869 C112.303774,116.379396 115.275947,109.909843 121.22038,105.448015 C127.164814,100.986187 134.427641,98.7553068 143.00908,98.7553068 C155.523677,98.7553068 165.490511,99.9599822 172.909879,102.369369 L172.909879,124.856869 Z" id="S" stroke="#FFFFFF" stroke-width="2.288" fill="#FFFFFF" transform="translate(144.416965, 147.946713) rotate(-1.000000) translate(-144.416965, -147.946713) "></path>
            </g>
        </g>
    </g>
</svg>