<?xml version="1.0" encoding="UTF-8"?>
<svg width="184px" height="184px" viewBox="0 0 184 184" version="1.1" xmlns="http://www.w3.org/2000/svg" xmlns:xlink="http://www.w3.org/1999/xlink" style="background: #FFFFFF;">
    <!-- Generator: Sketch 48.2 (47327) - http://www.bohemiancoding.com/sketch -->
    <title>Artboard</title>
    <desc>Created with Sketch.</desc>
    <defs></defs>
    <g id="Page-1" stroke="none" stroke-width="1" fill="none" fill-rule="evenodd" opacity="0.117470562">
        <g id="Artboard">
            <g id="Group-4-Copy" transform="translate(37.000000, 34.000000)">
                <path d="M103.156855,22.4289547 L79.9373369,24.3619505 C77.0950122,14.5323321 69.6125983,7.03821293 60.478557,5.14672673 C57.0498449,2.52835574 53.0687522,0.787750017 48.703015,0.214077713 L48.703015,0 L45.7159317,0 L45.7159317,0.172568091 C31.0102907,1.73874012 19.4438445,14.2002551 19.0456433,29.432654 L0,31.017482 L11.7856522,105.805461 L79.8635789,117 L96.0839009,108.797419 L112,33.4105817 L103.156855,22.4289547 Z M76.6572896,24.6350279 L71.9425233,25.0275037 C71.1139523,19.6492092 69.0285086,14.7552714 66.0428039,10.7500593 C70.9344975,13.6575984 74.7607215,18.6177651 76.6572896,24.6350279 Z M59.1899752,8.21447435 C64.078452,12.1945009 67.5898833,18.2702969 68.7272727,25.2952174 L34.5325215,28.1418913 C36.7601963,17.1339127 46.0553103,8.71119062 57.3761263,7.99549944 C57.9880188,8.03934106 58.5925586,8.1139651 59.1899752,8.21447435 Z M47.1465148,3.32380136 C49.6032759,3.49940105 51.9584763,4.11295058 54.1544421,5.0958891 C42.4558749,7.13988818 33.2048778,16.5397188 31.2076679,28.4184667 L22.255609,29.1637743 C22.7951222,15.3520305 33.6154869,4.17661421 47.1465148,3.32380136 Z M80.8755108,112.685331 L79.5758998,112.349057 L101.537626,24.8442084 L102.837007,25.1800165 L80.8755108,112.685331 Z" id="Shape" fill="#202548" fill-rule="nonzero" transform="translate(56.000000, 58.500000) scale(-1, 1) translate(-56.000000, -58.500000) "></path>
                <path d="M78.7231969,56.8414541 L72.6795923,56.8414541 L72.6795923,51.2352041 C69.9935324,50.7883269 67.4296045,50.5648916 64.9877318,50.5648916 C60.2260801,50.5648916 57.84529,52.6367459 57.84529,56.7805166 C57.84529,58.8930272 58.5676665,60.4672302 60.0124411,61.5031729 C61.4572158,62.5391155 63.6853912,63.321139 66.6970342,63.8492666 C76.1389418,65.5148999 80.8598249,70.2070405 80.8598249,77.9258291 C80.8598249,85.8071185 75.2842992,89.7477041 64.1330807,89.7477041 C59.2493353,89.7477041 54.7522873,89.1383352 50.6418016,87.9195791 L50.6418016,77.6820791 L56.6854062,77.6820791 L56.6854062,83.2883291 C59.3307683,83.7758315 61.7726044,84.0195791 64.0109876,84.0195791 C70.7668354,84.0195791 74.1447086,81.9477248 74.1447086,77.8039541 C74.1447086,75.3664419 73.4223321,73.5688036 71.9775574,72.4109854 C70.5327827,71.2531671 68.1825155,70.4508313 64.9266853,70.0039541 C61.0603869,69.4758265 57.7944312,68.145371 55.1287202,66.0125479 C52.4630092,63.8797247 51.1301737,60.822724 51.1301737,56.8414541 C51.1301737,52.9820598 52.4833578,50.0367768 55.1897667,48.0055166 C57.8961756,45.9742564 61.2028286,44.9586416 65.1098249,44.9586416 C70.8075278,44.9586416 75.3452731,45.5070736 78.7231969,46.6039541 L78.7231969,56.8414541 Z" id="S" stroke="#FFFFFF" stroke-width="1.04" fill="#FFFFFF" transform="translate(65.750813, 67.353173) rotate(-1.000000) translate(-65.750813, -67.353173) "></path>
            </g>
        </g>
    </g>
</svg>